<svg width="1100" height="275" viewBox="0 0 1100 275" fill="none" xmlns="http://www.w3.org/2000/svg">
<path d="M799.563 275H736.313C660.458 275 598.812 213.354 598.812 137.5C598.812 61.6458 660.458 0 736.313 0C812.167 0 873.813 61.6458 873.813 137.5V272.25H818.813V137.5C818.813 91.8958 781.917 55 736.313 55C690.708 55 653.812 91.8958 653.812 137.5C653.812 183.104 690.708 220 736.313 220H799.563V275Z" fill="white"/>
<path d="M488.813 272.25H433.812V137.5C433.812 61.6458 495.458 0 571.313 0V55C525.708 55 488.813 91.8958 488.813 137.5V272.25Z" fill="white"/>
<path d="M241.312 275C165.458 275 103.812 213.354 103.812 137.5C103.812 61.6458 165.458 0 241.312 0C317.167 0 378.813 61.6458 378.813 137.5V165H220.687V110H319C307.542 77.9167 277.062 55 241.312 55C195.708 55 158.812 91.8958 158.812 137.5C158.812 183.104 195.708 220 241.312 220C268.812 220 294.479 206.25 309.833 183.333L355.437 214.042C330 252.083 287.375 275 241.312 275Z" fill="white"/>
<path d="M40.5627 260.563V245.438H48.8127V272.25H42.8543L22.9168 257.813V271.563H14.896V246.125H20.6252L40.5627 260.563Z" fill="white"/>
<path d="M48.8118 207.625V217.937L33.2285 230.312H48.8118V239.021H1.14514V230.312H29.791L14.666 218.625V208.083L31.3952 221.833L48.8118 207.625Z" fill="white"/>
<path d="M49.7292 186.084C49.7292 190.897 48.5833 194.793 46.5208 198.001C44.4583 201.209 41.4792 203.501 37.8125 204.876L33 196.855C37.8125 195.022 40.3333 191.355 40.3333 185.855C40.3333 183.334 39.875 181.272 38.9583 180.126C38.0417 178.98 36.8958 178.293 35.2917 178.293C33.6875 178.293 32.3125 178.98 31.3958 180.584C30.4792 182.189 29.5625 184.709 28.4167 188.605C27.7292 190.668 27.0417 192.501 26.5833 194.105C25.8958 195.48 25.2083 197.084 24.0625 198.459C22.9167 199.834 21.5417 200.98 19.9375 201.897C18.3333 202.584 16.5 203.043 14.2083 203.043C9.85417 203.043 6.41667 201.439 3.89583 198.459C1.375 195.48 0 191.814 0 187.459C0 183.564 0.916667 180.126 2.75 177.376C4.58333 174.397 7.33333 172.105 10.5417 170.501L15.125 178.293C11 180.126 8.9375 183.334 8.9375 187.459C8.9375 189.522 9.39583 190.897 10.3125 192.043C11.2292 193.189 12.375 193.647 13.75 193.647C15.3542 193.647 16.5 192.959 17.4167 191.814C18.3333 190.668 19.25 188.147 20.3958 184.709C20.8542 183.334 21.3125 182.189 21.5417 181.501C21.7708 180.814 22.2292 179.668 22.6875 178.522C23.1458 177.147 23.6042 176.23 24.0625 175.543C24.5208 174.855 25.2083 173.939 25.8958 173.022C26.5833 172.105 27.5 171.418 28.1875 170.959C29.1042 170.501 30.0208 170.043 31.1667 169.814C32.3125 169.584 33.6875 169.355 35.0625 169.355C39.4167 169.355 42.8542 170.959 45.6042 174.168C48.5833 176.918 49.7292 181.043 49.7292 186.084Z" fill="white"/>
<path d="M14.896 140.48V131.084L49.0418 143.459C53.8543 145.293 57.521 147.584 59.5835 150.564C61.8752 153.543 62.7918 157.209 62.5627 161.564H54.3127C54.3127 159.272 53.8543 157.439 52.7085 155.834C51.5627 154.459 49.9585 153.314 47.6668 152.626L14.896 166.376V156.751L37.8127 147.814L14.896 140.48Z" fill="white"/>
<path d="M13.7498 107.48C13.7498 103.814 14.8956 100.605 17.4164 98.3135C19.9373 95.7927 23.3748 94.6469 27.7289 94.6469H48.5831V103.355H28.6456C26.3539 103.355 24.7498 104.043 23.3748 105.189C22.2289 106.334 21.5414 107.939 21.5414 110.001C21.5414 112.293 22.2289 114.126 23.6039 115.501C24.9789 116.876 27.0414 117.564 30.0206 117.564H48.3539V126.272H14.8956V117.564H18.7914C15.3539 115.501 13.7498 112.064 13.7498 107.48Z" fill="white"/>
<path d="M49.7289 70.3548C49.7289 75.3964 47.8956 79.7506 44.4581 83.1881C41.0206 86.6256 36.6664 88.2298 31.6248 88.2298C26.5831 88.2298 22.2289 86.6256 18.7914 83.1881C15.5831 79.7506 13.7498 75.6256 13.7498 70.3548C13.7498 67.1464 14.4373 63.9381 16.0414 61.1881C17.6456 58.4381 19.7081 56.3756 22.4581 55.0006L26.8123 62.5631C25.4373 63.2506 24.2914 64.1673 23.3748 65.7714C22.4581 67.1464 22.2289 68.7506 22.2289 70.3548C22.2289 72.8756 23.1456 75.1673 24.7498 77.0006C26.5831 78.8339 28.6456 79.5214 31.3956 79.5214C34.1456 79.5214 36.2081 78.6048 38.0414 77.0006C39.8748 75.1673 40.5623 73.1048 40.5623 70.3548C40.5623 68.5214 40.1039 66.9173 39.4164 65.5423C38.7289 64.1673 37.5831 63.0214 36.2081 62.3339L40.5623 54.7714C43.3123 56.3756 45.3748 58.4381 46.9789 61.1881C49.0414 64.1673 49.7289 67.1464 49.7289 70.3548Z" fill="white"/>
<path d="M1090.6 55.0002H956.312V272.25H1090.6V55.0002Z" fill="white"/>
</svg>
