<svg width="1094" height="256" viewBox="0 0 1094 256" fill="none" xmlns="http://www.w3.org/2000/svg">
<path d="M128.861 0.0749512C58.0153 0.0749512 0.149048 57.5874 0.149048 128C0.149048 198.412 58.0153 255.925 128.861 255.925C199.707 255.925 258.114 198.412 258.114 128C258.114 57.5874 200.247 0.0749512 128.861 0.0749512ZM139.677 90.9124L145.085 85L162.391 65.1125H178.615L145.626 103.812C145.626 103.812 142.381 99.5124 140.218 97.8999C138.055 95.7499 138.055 92.5249 139.677 90.9124ZM98.035 65.1125C98.035 65.1125 126.157 97.8999 135.891 108.112C137.514 109.725 136.973 111.875 135.891 114.025C130.483 120.475 129.943 120.475 129.943 120.475L81.8108 65.1125H98.035ZM120.208 164.55L114.8 170.462L97.4942 190.887H81.8108L114.8 152.187C114.8 152.187 118.045 156.487 120.208 158.1C122.371 159.175 121.83 162.937 120.208 164.55ZM121.29 130.15C107.77 146.275 69.3723 190.35 69.3723 190.35H52.0665L103.984 130.687C105.606 129.075 105.606 126.387 103.984 123.7L52.6073 64.575H69.3723L120.749 124.237C122.371 126.387 122.371 128.537 121.29 130.15ZM161.85 190.35L126.698 149.5L125.075 147.35C123.453 145.737 123.453 141.975 125.075 140.362L190.513 64.575H206.737L140.759 139.825C139.136 141.437 139.136 144.125 140.759 146.812L178.615 190.35H161.85ZM191.594 190.35C191.594 190.35 162.932 157.562 153.738 146.812C152.656 145.737 152.116 144.125 152.656 142.512C153.197 141.975 153.738 140.9 154.279 140.362L158.605 136.062L206.737 191.962L191.594 190.35Z" fill="white"/>
<path d="M347.347 75.325H327.337V177.45H347.347V75.325Z" fill="white"/>
<path d="M450.641 102.737C440.906 102.737 431.713 106.5 426.304 115.1C422.519 106.5 414.407 102.737 404.131 102.737C395.478 102.737 386.826 106.5 382.499 114.562V104.35H363.571V177.45H381.958V136.6C381.958 126.387 388.989 118.862 398.183 118.862H399.264C407.376 118.862 410.621 124.237 410.621 133.375V176.912H429.549V136.062C429.549 125.85 436.58 118.325 445.774 118.325H446.855C454.967 118.325 458.212 123.7 458.212 132.837V176.375H477.14V130.15C477.14 121.55 474.977 114.562 470.651 109.187C466.865 105.962 459.834 102.737 450.641 102.737Z" fill="white"/>
<path d="M578.271 102.737C568.537 102.737 559.343 106.5 553.935 115.1C550.149 106.5 542.037 102.737 531.762 102.737C523.109 102.737 514.456 106.5 510.129 114.562V104.35H491.201V177.45H510.129V136.6C510.129 126.387 517.16 118.862 526.354 118.862H527.435C535.547 118.862 538.792 124.237 538.792 133.375V176.912H557.72V136.062C557.72 125.85 564.751 118.325 573.945 118.325H575.026C583.138 118.325 586.383 123.7 586.383 132.837V176.375H605.311V130.15C605.311 121.55 603.148 114.562 598.822 109.187C593.414 105.962 587.465 102.737 578.271 102.737Z" fill="white"/>
<path d="M722.666 153.8V120.475H739.431V104.887H722.666V81.2374H703.738V104.887H682.106H663.718H663.178V145.2C663.178 155.412 656.147 164.012 647.494 164.012H646.953C639.923 164.012 636.137 158.637 636.137 149.5V104.35H617.209V151.112C617.209 159.712 619.372 166.7 623.699 171.537C627.484 176.912 633.974 179.062 642.627 179.062C651.821 179.062 659.933 174.762 664.259 167.237V177.987H683.187V119.937H704.82V158.637C704.82 171 711.85 177.45 723.748 177.45H742.676V161.325H732.401C724.829 161.325 722.666 160.25 722.666 153.8Z" fill="white"/>
<path d="M809.736 129.075C809.736 111.875 797.298 102.737 778.91 102.737C760.523 102.737 748.625 112.95 747.543 126.387H767.012C767.553 122.087 772.42 117.787 778.91 117.787H779.992C787.022 117.787 791.89 123.162 791.89 129.612V131.225L772.42 132.837C764.308 133.375 758.36 135.525 752.951 139.825C747.543 143.587 745.38 149.5 745.38 157.025C745.38 169.925 756.196 178.525 769.176 178.525C778.369 178.525 786.481 174.762 790.808 168.312C790.808 172.075 791.349 175.3 791.89 177.45H809.736C809.195 174.225 809.195 168.85 809.195 161.325V129.075H809.736ZM791.349 147.887C791.349 157.025 783.777 164.012 774.584 164.012H773.502C768.094 164.012 764.308 161.325 764.308 156.487C764.308 153.8 765.39 151.112 767.553 150.037C769.716 148.425 771.88 147.887 775.124 147.35L791.349 145.737V147.887Z" fill="white"/>
<path d="M863.817 102.737C854.082 102.737 845.429 108.65 842.725 113.487V74.7875H823.797V176.912H842.725V167.237C845.97 172.612 854.082 177.987 863.817 177.987C884.367 178.525 896.806 159.712 896.265 139.825C896.806 121.012 884.367 102.2 863.817 102.737ZM860.031 164.012H858.95C850.297 164.012 841.644 154.875 842.185 141.437C842.185 128 850.297 118.862 858.95 118.862H860.031C869.766 118.862 876.796 127.462 876.796 141.437C877.337 154.875 869.766 164.012 860.031 164.012Z" fill="white"/>
<path d="M924.928 75.325H906V177.45H924.928V75.325Z" fill="white"/>
<path d="M969.815 102.737C948.182 102.2 934.121 118.862 934.662 140.9C934.121 164.012 951.427 179.062 969.815 179.062C988.202 179.062 999.559 168.85 1002.8 154.875H983.876C982.794 160.25 977.386 164.013 970.896 164.013H969.815C961.703 164.013 953.591 157.025 953.05 147.35H1002.8C1002.8 144.125 1003.34 141.437 1003.34 140.362C1003.89 118.862 990.906 102.737 969.815 102.737ZM953.591 132.3C954.131 123.7 960.621 118.325 969.274 118.325H970.356C978.468 118.325 984.957 123.7 986.039 132.3H953.591Z" fill="white"/>
<path d="M1076.35 177.987L1053.1 142.512L1029.3 177.987H1007.67L1042.82 126.387L1010.38 77.475H1033.09L1054.18 109.187L1075.81 77.475H1097.45L1065 125.85L1100.15 177.987H1076.35Z" fill="white"/>
</svg>
