<svg width="1100" height="313" viewBox="0 0 1100 313" fill="none" xmlns="http://www.w3.org/2000/svg">
<mask id="mask0_103_15" style="mask-type:luminance" maskUnits="userSpaceOnUse" x="0" y="0" width="1100" height="313">
<path d="M0 0H1100V312.272H0V0Z" fill="white"/>
</mask>
<g mask="url(#mask0_103_15)">
<path d="M171.001 311.627C165.248 311.795 159.649 309.754 155.351 305.925C151.054 302.096 148.383 296.767 147.885 291.032L145.284 270.635C120.509 263.572 106.015 245.232 102.25 216.112L79.952 44.2632C75.1688 43.4932 70.3273 43.1449 65.4833 43.2223C58.3134 43.1636 51.1692 44.0892 44.2509 45.9732V306.596H0.497925V97.1017C0.497925 68.6749 13.2572 48.6003 36.4962 40.2483V26.7413C36.4962 11.1277 45.9851 0.644294 60.0823 0.644294C74.1794 0.644294 83.0241 9.4176 85.3034 25.4278L87.0374 37.9434C112.481 45.0563 127.347 65.5026 131.757 98.6874L152.37 264.341C164.685 266.72 177.342 266.72 189.656 264.341L210.269 98.7125C214.58 65.5026 229.619 45.0563 254.989 37.869L256.723 25.3534C259.002 9.4176 267.971 0.569946 281.944 0.569946C295.917 0.569946 305.53 11.0534 305.53 26.667V40.1739C328.769 48.526 341.528 68.6005 341.528 97.0271V306.521H297.726V45.9484C290.808 44.0644 283.663 43.1388 276.493 43.1975C271.649 43.1201 266.808 43.4684 262.025 44.2384L239.727 216.112C236.035 244.712 221.195 263.497 196.693 270.635L194.24 291.057C193.857 296.857 191.201 302.271 186.849 306.123C182.498 309.976 176.803 311.953 171.001 311.627ZM153.385 272.618L155.64 290.19C155.876 294.043 157.622 297.647 160.497 300.222C163.372 302.797 167.146 304.134 171.001 303.944C172.919 304.082 174.844 303.833 176.664 303.213C178.484 302.593 180.161 301.614 181.596 300.333C183.03 299.053 184.193 297.498 185.016 295.759C185.839 294.021 186.305 292.136 186.386 290.214L188.641 272.618C176.967 274.534 165.059 274.534 153.385 272.618ZM305.53 298.913H333.724V97.1017C333.724 73.012 324.012 56.3823 305.53 48.625V298.913ZM8.22778 298.913H36.4962V48.625C18.0388 56.3823 8.42599 73.012 8.42599 97.1017L8.22778 298.913ZM88.1527 46.3945L110.004 215.095C113.126 239.507 124.647 255.294 144.219 262.184L124.027 99.6545C120.31 71.0045 108.543 53.5074 88.1527 46.3945ZM253.874 46.3945C233.484 53.5074 221.666 71.0046 217.999 99.6788L197.807 262.085C217.405 255.195 228.901 239.408 232.022 214.996L253.874 46.3945ZM44.3004 37.77C51.2501 36.0794 58.3807 35.2471 65.5328 35.2916C70.0054 35.2444 74.4758 35.5094 78.9114 36.0846L77.5736 26.3447C75.8641 14.3991 69.9675 8.35195 60.0823 8.35195C50.197 8.35195 44.3004 15.3657 44.3004 26.6422V37.77ZM276.493 35.2916C283.645 35.2471 290.776 36.0794 297.726 37.77V26.7413C297.726 15.4648 291.681 8.45109 281.944 8.45109C272.207 8.45109 266.162 14.4983 264.453 26.4439L263.115 36.1838C267.551 35.6084 272.021 35.3434 276.493 35.3907V35.2916Z" fill="white"/>
<path d="M462.306 306.596H419.321V5.67529H462.306V306.596ZM427.126 298.789H454.502V13.4821H427.126V298.789Z" fill="white"/>
<path d="M741.175 311.627C722.519 311.627 718.259 294.601 716.871 289L713.65 274.724C685.729 269.768 668.683 251.751 661.622 219.805L621.164 44.0403C616.537 43.4606 611.879 43.1791 607.215 43.1976C599.472 43.0721 591.755 44.1165 584.323 46.2956V306.522H540.521V95.8623C540.521 68.6007 552.908 49.6413 576.519 40.7689V26.7414C576.519 11.1278 585.983 0.644409 600.081 0.644409C612.245 0.644409 621.189 8.37685 624.014 21.3138L627.606 37.1752C654.858 42.1319 671.21 59.629 678.816 92.0708L720.067 267.86C724.71 268.438 729.386 268.72 734.065 268.702C741.777 268.762 749.463 267.821 756.932 265.902V5.67546H800.735V223.051C800.735 245.356 787.678 262.854 764.737 271.453V285.01C764.737 301.466 755.719 311.627 741.175 311.627ZM721.95 275.964L724.427 287.191C727.376 298.988 732.232 303.82 741.151 303.82C751.06 303.82 756.908 297.005 756.908 285.109V273.907C749.408 275.623 741.733 276.455 734.04 276.386C730.002 276.394 725.967 276.196 721.95 275.791V275.915V275.964ZM548.325 298.789H576.519V49.1457C557.789 57.2499 548.325 72.9378 548.325 95.838V298.789ZM629.513 45.5025L669.153 218.07C675.298 245.703 688.974 261.193 711.668 266.373L671.235 93.8056C664.644 65.7753 651.688 50.6327 629.513 45.5025ZM764.737 13.4822V263.15C782.971 255.418 792.93 241.366 792.93 223.15V13.4822H764.737ZM584.323 38.0675C591.799 36.1395 599.496 35.2062 607.215 35.2917C611.253 35.2822 615.289 35.4807 619.306 35.8865V35.7626L616.383 22.9C615.194 17.4476 611.428 8.35206 600.081 8.35206C588.733 8.35206 584.323 17.7945 584.323 26.6422V38.0675Z" fill="white"/>
<path d="M1101.51 306.596H1055.67L1033.08 216.979H906.03L883.854 306.596H838.021L897.133 88.948C903.973 64.0901 919.605 47.0886 942.449 39.6536L946.537 22.553C949.011 13.1352 953.967 0.71875 969.599 0.71875C985.239 0.71875 990.213 13.1105 992.643 22.4787L996.679 39.6536C1019.47 47.0886 1035.11 64.1644 1041.97 88.9974L1101.51 306.596ZM1061.74 298.789H1091.28L1034.44 91.0047C1028.82 70.6081 1016.62 56.1346 998.988 48.873L1034.11 187.685H905.535L940.219 48.7491C922.556 56.1841 910.361 70.5833 904.745 90.8806L848.303 298.789H877.839L900.006 209.173H1039.07L1061.74 298.789ZM915.569 179.829H1024.04L990.239 45.7503C976.699 42.3052 962.508 42.3052 948.968 45.7503L915.569 179.829ZM951.12 36.9769V37.2743C963.324 34.7711 975.909 34.7711 988.112 37.2743V36.9522L985.083 24.2382C982.141 12.8626 977.801 8.40162 969.625 8.40162C961.449 8.40162 957.118 12.8627 954.141 24.3126L951.12 36.9522V36.9769Z" fill="white"/>
</g>
</svg>
