<svg width="1100" height="241" viewBox="0 0 1100 241" fill="none" xmlns="http://www.w3.org/2000/svg">
<path d="M342.314 224.847V73.363H364.852L366.999 85.5905H368.072C374.512 77.2152 385.455 71.2164 400.692 71.2164C428.577 71.2164 450.905 93.9658 450.905 127.639C450.905 161.313 428.597 184.062 400.692 184.062C385.666 184.062 375.163 177.834 369.586 170.762H368.513V224.827H342.333L342.314 224.847ZM424.706 127.659C424.706 107.918 412.038 95.4799 396.59 95.4799C381.143 95.4799 368.475 107.918 368.475 127.659C368.475 147.399 381.143 159.837 396.59 159.837C412.038 159.837 424.706 147.399 424.706 127.659Z" fill="white"/>
<path d="M464.187 127.639C464.187 94.8091 487.779 71.2164 519.326 71.2164C550.872 71.2164 574.465 94.8091 574.465 127.639C574.465 160.47 550.872 184.062 519.326 184.062C487.779 184.062 464.187 160.24 464.187 127.639ZM548.074 127.639C548.074 108.321 535.195 95.4607 519.326 95.4607C503.457 95.4607 490.367 108.34 490.367 127.639C490.367 146.939 503.457 159.607 519.326 159.607C535.195 159.607 548.074 146.958 548.074 127.639Z" fill="white"/>
<path d="M593.438 181.935V31.7356H619.618V181.935H593.438Z" fill="white"/>
<path d="M716.806 73.3629H744.692L697.488 205.317C692.773 218.407 686.333 224.846 669.372 224.846H644.054V200.602H665.52C669.391 200.602 671.518 198.666 672.822 195.447L675.39 188.375L631.194 73.3629H659.08L687.196 148.683H691.489L716.806 73.3629Z" fill="white"/>
<path d="M749.694 187.301H776.296C777.369 194.373 784.441 204.033 801.192 204.033C816.85 204.033 827.161 194.163 827.161 179.137V163.9H826.088C820.3 170.129 809.567 175.706 795.825 175.706C767.94 175.706 746.474 154.241 746.474 123.346C746.474 92.4517 767.94 71.2164 795.825 71.2164C810.199 71.2164 820.721 77.0044 827.372 85.1689H828.445L830.591 73.363H853.341V179.137C853.341 207.885 834.022 226.993 801.192 226.993C764.509 226.993 750.346 202.96 749.694 187.301ZM827.161 123.366C827.161 106.423 815.144 94.6174 799.908 94.6174C784.671 94.6174 772.865 106.423 772.865 123.366C772.865 140.308 784.882 152.325 799.908 152.325C814.933 152.325 827.161 140.519 827.161 123.366Z" fill="white"/>
<path d="M871.529 127.639C871.529 94.8091 895.121 71.2164 926.668 71.2164C958.214 71.2164 981.807 94.8091 981.807 127.639C981.807 160.47 958.214 184.062 926.668 184.062C895.121 184.062 871.529 160.24 871.529 127.639ZM955.416 127.639C955.416 108.321 942.537 95.4607 926.668 95.4607C910.799 95.4607 897.709 108.34 897.709 127.639C897.709 146.939 910.799 159.607 926.668 159.607C942.537 159.607 955.416 146.958 955.416 127.639Z" fill="white"/>
<path d="M1000.03 181.935V73.363H1022.55L1024.7 83.6548H1025.77C1030.07 78.7293 1040.8 71.2164 1057.09 71.2164C1081.98 71.2164 1100 89.2319 1100 116.696V181.916H1073.82V120.127C1073.82 106.174 1063.95 96.0932 1050.44 96.0932C1036.93 96.0932 1026.19 106.615 1026.19 120.127V181.916H1000.01L1000.03 181.935Z" fill="white"/>
<path d="M201.448 169.248L265.805 132.086C269.217 130.112 271.325 126.451 271.325 122.522V48.1987C271.325 44.2698 269.217 40.6092 265.805 38.6351L201.448 1.47335C198.036 -0.500688 193.801 -0.481523 190.409 1.47335L126.051 38.6351C122.64 40.6092 120.531 44.2698 120.531 48.1987V181.015L75.3968 207.061L30.2622 181.015V128.904L75.3968 102.858L105.161 120.05V85.0921L80.9164 71.0822C79.249 70.1239 77.3325 69.6064 75.3968 69.6064C73.4611 69.6064 71.5445 70.1239 69.8771 71.0822L5.51964 108.244C2.1082 110.218 0 113.879 0 117.808V192.131C0 196.06 2.1082 199.721 5.51964 201.695L69.8771 238.856C73.2886 240.811 77.505 240.811 80.9164 238.856L145.274 201.695C148.685 199.721 150.794 196.06 150.794 192.131V59.3146L151.599 58.8546L195.909 33.2688L241.044 59.3146V111.425L195.909 137.471L166.183 120.318V155.276L190.389 169.248C193.801 171.202 198.036 171.202 201.429 169.248H201.448Z" fill="white"/>
</svg>
