<svg width="1100" height="222" viewBox="0 0 1100 222" fill="none" xmlns="http://www.w3.org/2000/svg">
<path fill-rule="evenodd" clip-rule="evenodd" d="M384.439 114.85C380.559 112.242 373.115 108.983 362.764 105.071C352.414 101.159 344.97 97.5738 341.09 94.3141C336.883 91.0545 334.941 86.8169 334.941 81.2754C334.941 75.734 336.883 71.1704 341.09 67.9107C345.296 64.651 350.797 63.0212 357.267 63.0212C364.064 63.0212 369.56 64.977 373.767 68.5627C377.973 72.1483 380.237 77.3638 380.237 84.2091H396.736C396.736 72.4743 392.856 63.3516 385.091 56.8323C377.326 50.3129 368.265 47.0532 357.267 47.0532C346.269 47.0532 337.209 49.9869 329.77 56.1803C322.331 62.3737 318.446 70.5229 318.446 80.9494C318.446 89.0986 320.388 95.292 324.269 100.182C326.211 102.789 328.475 104.745 330.091 106.375C332.034 108.005 335.914 110.287 342.063 113.546C348.212 116.48 353.387 118.436 357.593 119.74C365.68 123.325 372.476 126.259 377.004 129.193C381.21 132.452 383.474 136.69 383.474 142.231C383.474 147.773 381.21 152.011 376.678 155.596C372.15 158.856 366.002 160.812 358.236 160.812C350.471 160.812 344.001 158.856 338.826 154.944C333.972 151.033 331.386 145.165 331.386 137.994H314.887C314.887 150.381 319.093 160.155 327.506 167.001C335.919 173.846 346.269 177.432 358.241 177.432C370.212 177.432 380.241 174.172 388.007 167.978C395.772 161.785 399.978 152.984 399.652 141.905C399.974 130.171 394.798 121.374 384.448 114.855" fill="white"/>
<path fill-rule="evenodd" clip-rule="evenodd" d="M494.111 50.2551H412.262V65.9016H444.939V174.436H461.113V65.9016H494.111V50.2551Z" fill="white"/>
<path fill-rule="evenodd" clip-rule="evenodd" d="M536.496 50.2552L491.205 174.11H508.673C508.673 174.11 513.201 160.419 516.76 154.552C532.29 130.108 558.171 127.175 566.584 127.175L583.083 173.784H600.551L554.934 49.9292H536.492V50.2552H536.496ZM526.789 123.589L545.878 69.8088L560.761 111.854C552.348 112.506 539.734 115.114 526.789 123.589Z" fill="white"/>
<path fill-rule="evenodd" clip-rule="evenodd" d="M813.109 50.2551H793.051L741.611 106.643V50.2551H725.433V174.436H741.611V114.792L794.668 174.436H814.726L758.758 110.881L813.109 50.2551Z" fill="white"/>
<path fill-rule="evenodd" clip-rule="evenodd" d="M893.99 126.853L845.787 50.2551H827.345V174.436H851.609V97.516L899.491 174.436H917.933V50.2551H893.99V126.853Z" fill="white"/>
<path fill-rule="evenodd" clip-rule="evenodd" d="M957.402 123.268H1000.76V100.45H957.402V73.7248H1004.96V50.2551H933.137V174.436H1005.93V150.97H957.402V123.268Z" fill="white"/>
<path fill-rule="evenodd" clip-rule="evenodd" d="M1018.22 50.2551V73.7248H1047.99V174.436H1071.93V73.7248H1101.69V50.2551H1018.22Z" fill="white"/>
<path fill-rule="evenodd" clip-rule="evenodd" d="M674.318 129.782C671.728 127.501 669.465 125.545 666.879 123.589C674.966 122.285 683.378 118.048 688.88 110.876C694.055 104.357 695.998 96.8596 695.998 88.7149C695.998 77.958 692.117 68.8308 684.673 61.338C677.234 53.8408 668.174 50.2551 657.498 50.2551H612.853V174.11H629.031V127.501C638.091 127.827 651.353 130.108 663.325 141.191C674.97 151.948 683.061 165.634 687.268 174.11H704.736C701.177 164.983 690.827 145.103 674.323 129.782H674.318ZM657.819 65.9016C663.968 65.9016 669.143 68.1834 673.349 72.7469C677.556 77.3105 679.82 82.526 679.82 89.0453C679.82 95.5647 677.877 100.78 673.349 105.344C665.584 113.493 647.79 111.863 629.674 111.863H629.353V65.9061H657.823L657.819 65.9016Z" fill="white"/>
<path d="M111.394 1.47583C172.01 1.65891 220.941 50.6077 220.937 111.059C220.932 171.725 171.55 221 111.041 220.718C50.4778 220.442 1.53349 171.301 1.69424 110.925C1.85053 50.4246 51.094 1.29721 111.394 1.47583Z" stroke="white" stroke-width="3" stroke-linecap="round" stroke-linejoin="round"/>
<path d="M39.386 98.4804C50.5314 96.2433 60.3551 98.0875 68.5758 103.964C73.6171 107.567 78.3637 111.546 82.6817 115.784C92.5858 125.505 103.579 135.547 116.864 143.138C128.112 149.573 139.07 153.328 150.367 154.632C173.212 157.271 194.694 144.955 203.812 124C204.147 123.232 204.969 121.084 205.773 118.891C206.594 116.654 207.242 114.323 207.706 111.966L208.997 105.361C202.634 108.085 196.61 110.747 190.506 113.153C184.326 115.592 177.922 117.119 171.171 116.619C164.571 116.132 158.744 113.417 153.511 109.755C143.343 102.642 133.39 95.2118 123.526 87.6788C114.35 80.6728 105.464 73.3005 94.7202 68.6566C83.7802 63.9233 72.4338 61.4451 60.5471 62.9901C42.9761 65.2719 29.4864 74.1355 20.2789 89.2953C16.7692 95.0779 14.273 101.271 13.5586 108.05C20.9576 104.343 29.7096 100.423 39.3905 98.4804H39.386Z" fill="#F6F5F5"/>
<path d="M156.493 159.428C154.296 159.428 152.086 159.303 149.853 159.044C137.949 157.673 126.437 153.73 114.658 146.996C100.936 139.155 89.6833 128.885 79.5693 118.954C75.4166 114.877 70.8486 111.05 65.9948 107.581C58.7118 102.374 50.2947 100.82 40.2656 102.839C32.5317 104.392 25.3425 107.317 18.9973 110.34C19.8993 110.537 20.7968 110.751 21.6765 111.028C30.2588 113.725 37.707 118.574 44.6282 124.12C55.1664 132.569 65.3428 141.468 75.8542 149.952C92.5902 163.473 111.086 173.185 132.948 175.141C147.469 176.44 161.173 173.641 173.729 166.17C185.701 159.044 194.399 149.407 200.637 137.923C190.135 151.408 173.984 159.428 156.498 159.428H156.493Z" fill="#F6F5F5"/>
<path d="M164.897 47.8213C165.585 48.8483 166.134 49.4065 166.371 50.0718C167.188 52.3938 167.938 54.7381 168.639 57.1002C169.362 59.5338 170.899 61.061 173.337 61.7665C175.77 62.4675 178.199 63.2043 180.593 64.0349C181.187 64.2403 181.629 64.8743 182.138 65.3119C181.62 65.821 181.191 66.5533 180.566 66.7944C178.476 67.6026 176.342 68.3439 174.176 68.9021C171.126 69.6879 169.291 71.4696 168.554 74.5596C168.018 76.8101 167.259 79.0115 166.473 81.1906C166.268 81.7532 165.585 82.1417 165.116 82.615C164.652 82.1373 163.977 81.7398 163.767 81.1727C162.888 78.7972 162.093 76.3904 161.37 73.9613C160.646 71.5232 159.141 69.9961 156.676 69.3129C154.234 68.6386 151.805 67.8929 149.416 67.0623C148.822 66.8569 148.393 66.1916 147.884 65.7361C148.402 65.2182 148.826 64.4591 149.452 64.2269C151.756 63.3695 154.113 62.6417 156.476 61.9451C158.985 61.2038 160.579 59.6678 161.271 57.1047C161.91 54.7291 162.66 52.3804 163.45 50.0495C163.678 49.3886 164.227 48.8349 164.902 47.8213H164.897Z" fill="#F2F2F3"/>
<path d="M57.0507 166.371C57.0731 169.724 54.5368 172.301 51.2012 172.328C47.745 172.355 45.1194 169.76 45.1462 166.344C45.173 163.022 47.7495 160.495 51.1163 160.495C54.4876 160.495 57.0329 163.018 57.0552 166.371H57.0507Z" fill="#F2F2F3"/>
</svg>
